<svg width="114" height="97" viewBox="0 0 114 97" fill="none" xmlns="http://www.w3.org/2000/svg">
<g clip-path="url(#clip0)">
<path d="M73.4615 44.0284C75.786 51.1313 73.0219 59.9134 67.0274 64.2756C61.0251 68.6455 51.7956 68.5972 45.9071 64.2506C40.0202 59.904 37.4915 51.253 39.791 44.1749C42.0906 37.0891 49.2263 31.5842 56.4914 31.5436C63.7565 31.4953 71.1448 36.9254 73.4615 44.0284Z" fill="#E1D3D0"/>
<path d="M43.4458 3.61245C49.4135 6.59452 54.7244 11.1228 54.2883 14.8641C53.8521 18.6054 47.6766 21.5547 41.9766 25.2394C36.2765 28.9242 31.0519 33.3444 27.3669 32.2125C23.6896 31.0755 21.5504 24.3873 21.2878 17.7282C21.0186 11.0624 22.6241 4.42254 26.7385 1.81976C30.8587 -0.791099 37.4806 0.637549 43.4458 3.61245Z" fill="#94A89D"/>
<path d="M43.4458 93.7175C49.4135 90.7354 54.7244 86.2071 54.2883 82.4658C53.8521 78.7245 47.6766 75.7752 41.9766 72.0905C36.2765 68.4057 31.0519 63.9855 27.3669 65.1174C23.6896 66.2544 21.5504 72.9426 21.2878 79.6017C21.0186 86.2675 22.6241 92.9074 26.7385 95.5101C30.8587 98.121 37.4806 96.6924 43.4458 93.7175Z" fill="#94A89D"/>
<path d="M67.0353 3.61245C61.0676 6.59452 55.7567 11.1228 56.1928 14.8641C56.629 18.6054 62.8045 21.5547 68.5045 25.2394C74.2046 28.9242 79.4292 33.3444 83.1142 32.2125C86.7915 31.0755 88.9307 24.3873 89.1933 17.7282C89.4625 11.0624 87.857 4.42254 83.7426 1.81976C79.6224 -0.791099 73.0005 0.637549 67.0353 3.61245Z" fill="#E4E9E3"/>
<path d="M67.0353 93.7175C61.0676 90.7354 55.7567 86.2071 56.1928 82.4658C56.629 78.7245 62.8045 75.7752 68.5045 72.0905C74.2046 68.4057 79.4292 63.9855 83.1142 65.1174C86.7915 66.2544 88.9307 72.9426 89.1933 79.6017C89.4625 86.2675 87.857 92.9074 83.7426 95.5101C79.6224 98.121 73.0005 96.6924 67.0353 93.7175Z" fill="#E4E9E3"/>
<path d="M102.96 61.4913C97.2154 64.884 90.5293 66.8858 87.6241 64.4884C84.7189 62.091 85.5947 55.3037 85.5947 48.5164C85.5947 41.729 84.7189 34.9417 87.6701 32.4615C90.6213 29.9905 97.3994 31.8249 103.134 35.2195C108.878 38.6123 113.583 43.5652 113.535 48.4336C113.491 53.3111 108.696 58.0967 102.96 61.4913Z" fill="#94A89D"/>
<path d="M10.2629 61.4913C16.007 64.884 22.6932 66.8858 25.5983 64.4884C28.5035 62.0911 27.6277 55.3037 27.6277 48.5164C27.6277 41.729 28.5035 34.9417 25.5523 32.4615C22.6012 29.9906 15.823 31.8249 10.0881 35.2195C4.34397 38.6123 -0.360615 43.5652 -0.312778 48.4336C-0.26862 53.3111 4.52612 58.0967 10.2629 61.4913Z" fill="#E4E9E3"/>
</g>
<defs>
<clipPath id="clip0">
<rect width="114" height="97" fill="white"/>
</clipPath>
</defs>
</svg>
