<svg width="101" height="120" viewBox="0 0 101 120" fill="none" xmlns="http://www.w3.org/2000/svg">
<path d="M35.849 84.7578C33.8711 113.491 18.2868 120.19 12.4136 94.8217C6.57853 69.3887 10.4745 11.9307 18.3255 8.56602C26.1176 5.21639 37.8127 55.9742 35.849 84.7578Z" fill="#D8D5CC"/>
<path d="M73.8411 58.2316C86.2407 56.7369 93.5284 84.2548 84.8027 99.5199C76.0813 114.783 51.312 117.778 47.6725 104.023C43.9921 90.2502 61.4737 59.7367 73.8411 58.2316Z" fill="#D0C5C3"/>
<path d="M78.741 28.1559C78.3208 41.3124 61.9204 52.8538 54.1479 45.4832C46.3679 38.0974 47.2189 11.7981 55.4116 6.01222C63.6118 0.241516 79.1612 14.9994 78.741 28.1559Z" fill="#E2D4D3"/>
</svg>
