<svg width="150" height="130" viewBox="0 0 150 130" fill="none" xmlns="http://www.w3.org/2000/svg">
<path d="M141.563 37.8333C148.403 46.4246 152.718 59.7702 148.044 75.0943C143.364 90.4184 129.689 107.727 111.119 110.581C92.5553 113.405 69.066 101.714 58.599 83.0561C48.1321 64.3686 50.6516 38.6726 62.3813 27.2275C74.1109 15.7764 95.0449 18.6062 110.222 21.9396C125.363 25.303 134.722 29.212 141.563 37.8333Z" fill="#F0ECEA"/>
<path d="M92.441 46.2616C103.48 74.7535 103.364 112.531 85.8268 125.016C68.33 137.5 33.4115 124.655 15.6714 107.205C-2.1093 89.7147 -2.6653 67.6654 3.71142 45.6162C10.1287 23.567 23.525 1.51774 41.3404 0.075706C59.1558 -1.36052 81.3961 17.7698 92.441 46.2616Z" fill="#B0A89E"/>
</svg>
