<svg width="50" height="60" viewBox="0 0 50 60" fill="none" xmlns="http://www.w3.org/2000/svg">
<path d="M15.6085 58.8147H13.2275V25.0478C13.2275 23.1908 12.791 21.3471 11.9577 19.6877L6.74603 9.29687L8.87566 8.2433L14.0873 18.6341C15.0794 20.6228 15.6085 22.8353 15.6085 25.0478V58.8147Z" fill="#986151"/>
<path d="M46.164 60H3.83598C1.71958 60 0 58.2879 0 56.1808V25.1004C0 22.8484 0.542328 20.5964 1.56085 18.5946L6.61376 8.49353V2.18527C6.61376 1.52679 7.14286 1 7.80423 1H42.1958C42.8571 1 43.3862 1.52679 43.3862 2.18527V8.49353L48.4788 18.6342C49.4709 20.6228 50 22.8353 50 25.0478V56.1808C50 58.2879 48.2804 60 46.164 60ZM8.99471 3.37054V8.77009C8.99471 8.95446 8.95503 9.13884 8.87566 9.29688L3.7037 19.6482C2.83069 21.3339 2.38095 23.2172 2.38095 25.1004V56.1808C2.38095 56.9842 3.0291 57.6295 3.83598 57.6295H46.164C46.9709 57.6295 47.6191 56.9842 47.6191 56.1808V25.0478C47.6191 23.1908 47.1825 21.3471 46.3492 19.6877L41.1376 9.29688C41.045 9.13884 41.0053 8.95446 41.0053 8.77009V3.37054H8.99471Z" fill="#986151"/>
<path d="M36.2434 40.2455H31.6138C30.9524 40.2455 30.4233 39.7188 30.4233 39.0603C30.4233 38.4018 30.9524 37.875 31.6138 37.875H36.2434L39.5238 33.608C40 32.9891 40.7407 32.6071 41.5344 32.6071H43.5185C44.1799 32.6071 44.709 33.1339 44.709 33.7924C44.709 34.4509 44.1799 34.9777 43.5185 34.9777H41.5344L38.254 39.2446C37.7778 39.8768 37.037 40.2455 36.2434 40.2455Z" fill="#986151"/>
<path d="M35.582 48.1473C35.3836 48.1473 35.1852 48.0946 35.0132 48.0024L20.463 40.1007C20.0794 39.8899 19.8413 39.4949 19.8413 39.0603C19.8413 38.6257 20.0794 38.2306 20.463 38.0199L35.0132 30.1181C35.3836 29.9205 35.8333 29.9337 36.1905 30.1444C36.5476 30.3551 36.7725 30.7502 36.7725 31.1585V35.1094H34.3915V33.1603L23.5185 39.0603L34.3915 44.9603V41.6942H36.7725V46.962C36.7725 47.3835 36.5476 47.7654 36.1905 47.9761C36.0053 48.0946 35.7937 48.1473 35.582 48.1473Z" fill="#986151"/>
<path d="M31.6137 6.26785H21.0317V8.63839H31.6137V6.26785Z" fill="#986151"/>
</svg>
