<svg width="50" height="60" viewBox="0 0 50 60" fill="none" xmlns="http://www.w3.org/2000/svg">
<g clip-path="url(#clip0)">
<path d="M33.8466 21.6616C32.4779 21.6616 31.209 21.0931 30.2538 19.9987L29.5837 19.2312C28.7282 18.2363 28.329 17.0708 28.4431 15.8485C28.5714 14.3988 29.4268 12.9775 30.8383 11.8547L40.9894 3.69643C42.3439 2.61625 44.4824 2.82944 45.6515 4.17967L49.2301 8.32985C49.8289 9.01207 50.0998 9.92169 49.9715 10.8029C49.8574 11.6557 49.3869 12.409 48.6741 12.8922L37.3681 20.4961C36.199 21.2778 34.9872 21.6616 33.8466 21.6616ZM32.4494 13.8302C31.5939 14.5125 31.0664 15.3226 31.0094 16.0759C30.9666 16.6018 31.1377 17.085 31.5369 17.554L32.207 18.3215C33.5044 19.8281 35.3864 18.7337 35.9281 18.3642L47.2341 10.7603C47.3481 10.6892 47.4052 10.5755 47.4337 10.4476C47.4479 10.2912 47.4052 10.1207 47.2911 9.99276L43.7126 5.84258C43.4417 5.5299 42.8856 5.44462 42.6005 5.67203L32.4494 13.8302Z" fill="#986151"/>
<path d="M16.5241 43.0662C16.1819 43.0662 15.8397 42.9241 15.5831 42.6541C15.0984 42.1424 15.1269 41.3323 15.6544 40.849C16.2532 40.2947 17.8072 39.1293 19.4468 37.8927C20.8868 36.7983 22.5406 35.5618 23.0254 35.107L23.8665 34.3395C25.9196 32.4634 25.9196 32.4634 25.8911 29.8766L25.8768 25.5133C25.8625 21.9032 26.0194 21.5337 28.7425 19.0606L29.6407 18.2363C30.154 17.753 30.9666 17.7814 31.4514 18.3073C31.9361 18.8332 31.9076 19.6291 31.3801 20.1124L30.4676 20.9509C28.4288 22.8128 28.4288 22.8128 28.4431 25.4991L28.4573 29.8624C28.4859 33.3872 28.329 33.7426 25.5917 36.2298L24.7647 36.9973C24.1659 37.5516 22.6262 38.7171 20.9866 39.9536C19.5323 41.048 17.8928 42.2845 17.3938 42.7536C17.1514 42.9525 16.8377 43.0662 16.5241 43.0662Z" fill="#986151"/>
<path d="M3.30766 56C2.53777 56 1.72511 55.7015 1.06928 55.1472C0.0855349 54.3087 -0.256638 53.1006 0.199592 52.0772L10.0228 30.4167C10.5503 29.2513 11.9475 27.9437 15.6259 28.2422C15.797 28.2564 15.9681 28.299 16.1249 28.3843L40.5332 41.4033C40.7898 41.5455 41.0037 41.7729 41.1178 42.0429C41.631 43.2652 41.4029 44.1891 41.132 44.7434C40.6615 45.7098 39.6493 46.3921 38.1237 46.8042L4.02052 55.9005C3.77815 55.9716 3.55003 56 3.30766 56ZM2.58054 53.0721C2.60906 53.0721 2.65183 53.129 2.73737 53.2001C2.97975 53.399 3.26489 53.4701 3.35043 53.4417L17.9783 49.5331L37.4537 44.3454C38.3091 44.118 38.7225 43.8195 38.8223 43.6205C38.8509 43.5637 38.8509 43.4926 38.8509 43.4073L15.1697 30.7578C13.6584 30.6584 12.6176 30.9284 12.3752 31.4543L2.58054 53.0721C2.58054 53.0721 2.56629 53.0721 2.58054 53.0721Z" fill="#986151"/>
</g>
<defs>
<clipPath id="clip0">
<rect width="50" height="60" fill="white"/>
</clipPath>
</defs>
</svg>
