<svg width="50" height="60" viewBox="0 0 50 60" fill="none" xmlns="http://www.w3.org/2000/svg">
<g clip-path="url(#clip0)">
<path d="M48.9526 55.0059H1.04622C0.624583 55.0059 0.246566 54.7588 0.0720964 54.3662C-0.0878339 53.9737 -0.000599176 53.5229 0.304722 53.2322L48.2111 5.31125C48.5164 5.00593 48.9671 4.9187 49.3451 5.07863C49.7377 5.23856 49.9849 5.61657 49.9849 6.05275V53.9591C49.9994 54.5261 49.5196 55.0059 48.9526 55.0059ZM3.57602 52.9123H47.9058V8.58255L3.57602 52.9123Z" fill="#986151"/>
<path d="M38.107 44.1603H25.9378C25.5161 44.1603 25.1381 43.9132 24.9636 43.5206C24.8037 43.1281 24.8909 42.6773 25.1963 42.3866L37.3655 30.2173C37.6708 29.912 38.1215 29.8248 38.4995 29.9847C38.8921 30.1446 39.1393 30.5226 39.1393 30.9588V43.1281C39.1538 43.6951 38.6886 44.1603 38.107 44.1603ZM28.4676 42.0667H37.0747V33.4595L28.4676 42.0667Z" fill="#986151"/>
<path d="M48.9532 48.1441H43.6174C43.0358 48.1441 42.5706 47.6788 42.5706 47.0972C42.5706 46.5157 43.0358 46.0504 43.6174 46.0504H48.9532C49.5348 46.0504 50 46.5157 50 47.0972C50 47.6788 49.5202 48.1441 48.9532 48.1441Z" fill="#986151"/>
<path d="M48.9531 41.1943H45.6528C45.0712 41.1943 44.606 40.7291 44.606 40.1475C44.606 39.566 45.0712 39.1007 45.6528 39.1007H48.9531C49.5347 39.1007 50 39.566 50 40.1475C50 40.7291 49.5202 41.1943 48.9531 41.1943Z" fill="#986151"/>
<path d="M48.9532 34.2592H43.6174C43.0358 34.2592 42.5706 33.7939 42.5706 33.2124C42.5706 32.6308 43.0358 32.1656 43.6174 32.1656H48.9532C49.5348 32.1656 50 32.6308 50 33.2124C50 33.7939 49.5202 34.2592 48.9532 34.2592Z" fill="#986151"/>
<path d="M48.9531 27.3095H45.6528C45.0712 27.3095 44.606 26.8443 44.606 26.2627C44.606 25.6811 45.0712 25.2159 45.6528 25.2159H48.9531C49.5347 25.2159 50 25.6811 50 26.2627C50 26.8443 49.5202 27.3095 48.9531 27.3095Z" fill="#986151"/>
<path d="M48.9532 20.3743H43.6174C43.0358 20.3743 42.5706 19.9091 42.5706 19.3275C42.5706 18.746 43.0358 18.2807 43.6174 18.2807H48.9532C49.5348 18.2807 50 18.746 50 19.3275C50 19.9091 49.5202 20.3743 48.9532 20.3743Z" fill="#986151"/>
<path d="M2.15178 39.3188C1.87554 39.3188 1.61384 39.217 1.41029 39.0135C1.13404 38.7372 1.03227 38.3301 1.14858 37.9521L3.32945 31.0897C3.38761 30.9297 3.47484 30.7843 3.59115 30.668L27.8715 6.38772C28.075 6.18417 28.3367 6.0824 28.613 6.0824C28.8892 6.0824 29.1509 6.19871 29.3545 6.38772L34.0361 11.0693C34.4432 11.4764 34.4432 12.1452 34.0361 12.5523L9.7412 36.8326C9.62489 36.9489 9.47949 37.0362 9.31956 37.0943L2.4571 39.2752C2.35533 39.3043 2.25356 39.3188 2.15178 39.3188ZM5.24861 31.9766L3.76562 36.6581L8.44722 35.1752L31.8116 11.8108L28.613 8.6122L5.24861 31.9766Z" fill="#986151"/>
<path d="M29.4998 16.7105C29.2381 16.7105 28.9619 16.6087 28.7583 16.4052L24.0767 11.7236C23.6696 11.3165 23.6696 10.6477 24.0767 10.2406C24.4838 9.83348 25.1526 9.83348 25.5597 10.2406L30.2413 14.9222C30.6484 15.3293 30.6484 15.9981 30.2413 16.4052C30.0232 16.6087 29.7615 16.7105 29.4998 16.7105Z" fill="#986151"/>
</g>
<defs>
<clipPath id="clip0">
<rect width="50" height="60" fill="white"/>
</clipPath>
</defs>
</svg>
