<svg width="141" height="100" viewBox="0 0 141 100" fill="none" xmlns="http://www.w3.org/2000/svg">
<path d="M123.483 93.2069C116.787 97.7977 102.372 101.331 99.5435 97.1089C96.7153 92.8866 105.471 80.8922 113.19 71.8676C120.91 62.859 127.606 56.7913 129.924 58.2041C132.242 59.6009 130.179 68.4493 129.669 75.7055C129.139 82.9617 130.179 88.6129 123.483 93.2069Z" fill="#BFBAB4"/>
<path d="M123.539 54.4933C119.929 61.176 108.486 62.9029 106.375 57.0935C104.265 51.2743 111.488 37.9188 117.209 37.0455C122.93 36.182 127.15 47.8106 123.539 54.4933Z" fill="#D3C9C7"/>
<path d="M29.196 79.5885C27.202 101.418 16.645 105.799 13.321 86.1691C10.0239 66.492 13.9718 22.8376 19.2899 20.6382C24.5684 18.4476 31.1818 57.7204 29.196 79.5885Z" fill="#B0A89E"/>
<path d="M32.9559 31.3762C-6.04227 23.6934 -12.1192 3.03129 23.8315 0.306798C59.8629 -2.35847 137.859 12.9309 140.907 23.3381C143.945 33.6692 72.0258 39.0504 32.9559 31.3762Z" fill="#627B82"/>
</svg>
