<svg width="143" height="144" viewBox="0 0 143 144" fill="none" xmlns="http://www.w3.org/2000/svg">
<path d="M128.722 51.1174C140.224 68.6924 145.419 88.2187 141.927 106.599C138.404 124.948 126.156 142.152 112.581 143.855C99.0063 145.565 84.068 131.744 68.4202 122.867C52.7723 113.99 36.4457 110.012 36.0076 103.681C35.6066 97.35 51.1002 88.6524 61.3367 71.3314C71.6041 54.0352 76.5835 28.1095 87.9924 22.9863C99.4074 17.8631 117.221 33.5115 128.722 51.1174Z" fill="#617485"/>
<path d="M74.0702 4.99418C75.8982 12.6867 61.9156 30.1992 65.637 51.3808C69.322 72.5984 90.7109 97.4779 88.8903 104.041C87.0624 110.641 62.0249 98.9614 43.3014 92.6511C24.6143 86.3769 12.2048 85.5085 5.78161 78.9015C-0.678025 72.3379 -1.18782 60.0068 1.62325 50.5051C4.39791 40.9673 10.4934 34.2228 16.9531 26.5303C23.4127 18.8378 30.2001 10.2479 42.3911 4.87839C54.6112 -0.520107 72.2423 -2.69108 74.0702 4.99418Z" fill="#444C57"/>
</svg>
