<svg width="150" height="104" viewBox="0 0 150 104" fill="none" xmlns="http://www.w3.org/2000/svg">
<path d="M111.092 39.1917C123.586 60.4778 130.957 85.2547 122.129 96.0205C113.301 106.786 88.308 103.541 63.3149 103.541C38.3218 103.541 13.3287 106.786 4.19594 95.85C-4.90293 84.9138 1.85177 59.796 14.3517 38.544C26.8449 17.2579 45.0833 -0.17593 63.01 0.00134004C80.9706 0.164974 98.5993 17.9329 111.092 39.1917Z" fill="#DEE2E1"/>
<path d="M148.767 26.8046C153.389 38.7788 144.625 57.2645 129.02 69.1592C113.442 81.0803 91.0239 86.368 79.2951 77.7371C67.5396 69.1062 66.4413 46.5355 73.0148 31.9281C79.5883 17.3207 93.8015 10.6555 109.945 10.0462C126.082 9.43685 144.145 14.8517 148.767 26.8046Z" fill="#E1D3D0"/>
</svg>
